<svg id="Capa_1" enable-background="new 0 0 512 512" height="512" viewBox="0 0 512 512" width="512" xmlns="http://www.w3.org/2000/svg"><g id="XMLID_2230_"><g id="XMLID_216_"><path id="XMLID_308_" d="m487.333 360.416h-2.333v-228.216c15.557-4.375 27-18.679 27-35.616 0-20.402-16.598-37-37-37s-37 16.598-37 37c0 13.491 7.261 25.314 18.078 31.779l-26.536 26.536c-35.312 35.314-92.772 35.314-128.084 0l-26.536-26.536c10.817-6.465 18.078-18.288 18.078-31.779 0-20.402-16.598-37-37-37s-37 16.598-37 37c0 13.491 7.261 25.314 18.078 31.779l-26.536 26.536c-35.313 35.314-92.772 35.314-128.084 0l-26.536-26.536c10.817-6.465 18.078-18.288 18.078-31.779 0-20.402-16.598-37-37-37s-37 16.598-37 37c0 16.937 11.443 31.241 27 35.616v228.216h-2.333c-13.602 0-24.667 11.065-24.667 24.666v42.667c0 13.601 11.065 24.666 24.667 24.666h462.667c13.601 0 24.667-11.065 24.667-24.666v-42.667c-.001-13.601-11.066-24.666-24.668-24.666zm-12.333-280.832c9.374 0 17 7.626 17 17s-7.626 17-17 17-17-7.626-17-17 7.626-17 17-17zm-219 0c9.374 0 17 7.626 17 17s-7.626 17-17 17-17-7.626-17-17 7.626-17 17-17zm-236 17c0-9.374 7.626-17 17-17s17 7.626 17 17-7.626 17-17 17-17-7.626-17-17zm472 331.166c0 2.573-2.093 4.666-4.667 4.666h-462.666c-2.573 0-4.667-2.093-4.667-4.666v-42.667c0-2.573 2.093-4.667 4.667-4.667h186.333c5.523 0 10-4.477 10-10s-4.477-10-10-10h-164v-212.69l21.315 21.316c43.111 43.11 113.258 43.11 156.369 0l31.316-31.316 31.315 31.316c43.111 43.11 113.258 43.11 156.369 0l21.316-21.316v212.69h-164c-5.523 0-10 4.477-10 10s4.477 10 10 10h186.333c2.573 0 4.667 2.093 4.667 4.667z"/><path id="XMLID_314_" d="m256 327.358c2.559 0 5.118-.976 7.071-2.929l29.354-29.353c1.875-1.875 2.929-4.419 2.929-7.071v-42.511c0-2.652-1.054-5.196-2.929-7.071l-29.354-29.354c-3.905-3.905-10.236-3.905-14.142 0l-29.354 29.354c-1.876 1.876-2.929 4.419-2.929 7.071v42.511c0 2.652 1.054 5.196 2.929 7.071l29.354 29.353c1.953 1.953 4.512 2.929 7.071 2.929zm-19.354-77.722 19.354-19.354 19.354 19.354v34.227l-19.354 19.353-19.354-19.354z"/><path id="XMLID_328_" d="m355.25 276.75h30c5.523 0 10-4.477 10-10s-4.477-10-10-10h-30c-5.523 0-10 4.477-10 10 0 5.522 4.477 10 10 10z"/><path id="XMLID_329_" d="m156.75 256.75h-30c-5.523 0-10 4.477-10 10s4.477 10 10 10h30c5.523 0 10-4.477 10-10s-4.477-10-10-10z"/><path id="XMLID_989_" d="m256 360.42c-2.63 0-5.21 1.06-7.07 2.92-1.86 1.87-2.93 4.44-2.93 7.08 0 2.63 1.07 5.21 2.93 7.07s4.44 2.93 7.07 2.93 5.21-1.07 7.07-2.93 2.93-4.44 2.93-7.07c0-2.64-1.07-5.21-2.93-7.08-1.86-1.86-4.44-2.92-7.07-2.92z"/></g></g></svg>